<svg width="891" height="934" viewBox="0 0 891 934" fill="none" xmlns="http://www.w3.org/2000/svg">
<path d="M419.671 21.2979C424.893 -7.09929 465.592 -7.09936 470.813 21.2979L505.189 208.24C508.924 228.556 533.719 236.613 548.684 222.372L686.375 91.3381C707.291 71.4335 740.218 95.3558 727.751 121.399L645.679 292.843C636.759 311.476 652.083 332.568 672.56 329.842L860.975 304.767C889.596 300.958 902.173 339.665 876.779 353.406L709.609 443.867C691.441 453.699 691.441 479.769 709.609 489.601L876.779 580.061C902.173 593.803 889.596 632.51 860.975 628.701L672.56 603.625C652.083 600.9 636.759 621.992 645.679 640.625L727.751 812.069C740.218 838.112 707.291 862.034 686.375 842.13L548.684 711.096C533.719 696.855 508.924 704.911 505.189 725.228L470.813 912.17C465.592 940.567 424.893 940.567 419.671 912.17L385.296 725.228C381.56 704.911 356.765 696.855 341.801 711.096L204.109 842.13C183.193 862.034 150.267 838.112 162.734 812.069L244.805 640.625C253.725 621.992 238.401 600.9 217.924 603.625L29.5093 628.701C0.888371 632.51 -11.6884 593.803 13.7053 580.061L180.875 489.601C199.043 479.769 199.043 453.699 180.875 443.867L13.7054 353.406C-11.6884 339.665 0.888303 300.958 29.5093 304.767L217.924 329.842C238.401 332.568 253.725 311.476 244.805 292.843L162.734 121.399C150.267 95.3559 183.193 71.4335 204.109 91.3381L341.801 222.372C356.765 236.613 381.56 228.557 385.296 208.24L419.671 21.2979Z" fill="#F0680C"/>
</svg>
